<mxfile host="app.diagrams.net" agent="Mozilla/5.0 (Windows NT 10.0; Win64; x64) AppleWebKit/537.36 (KHTML, like Gecko) Chrome/129.0.0.0 Safari/537.36" version="24.7.17">
  <diagram name="1 oldal" id="EVM-9tEnCVvm4R4A0qfL">
    <mxGraphModel dx="1434" dy="780" grid="1" gridSize="10" guides="1" tooltips="1" connect="1" arrows="1" fold="1" page="1" pageScale="1" pageWidth="1100" pageHeight="850" math="0" shadow="0">
      <root>
        <mxCell id="0" />
        <mxCell id="1" parent="0" />
        <mxCell id="4G9FyO-R4yy1cl6RzTbk-1" value="bor" style="rhombus;whiteSpace=wrap;html=1;" vertex="1" parent="1">
          <mxGeometry x="430" y="50" width="120" height="80" as="geometry" />
        </mxCell>
        <mxCell id="4G9FyO-R4yy1cl6RzTbk-2" value="" style="endArrow=none;html=1;rounded=0;entryX=0;entryY=0.5;entryDx=0;entryDy=0;exitX=1;exitY=0.5;exitDx=0;exitDy=0;" edge="1" parent="1" source="4G9FyO-R4yy1cl6RzTbk-3" target="4G9FyO-R4yy1cl6RzTbk-1">
          <mxGeometry width="50" height="50" relative="1" as="geometry">
            <mxPoint x="370" y="130" as="sourcePoint" />
            <mxPoint x="570" y="380" as="targetPoint" />
            <Array as="points">
              <mxPoint x="430" y="130" />
            </Array>
          </mxGeometry>
        </mxCell>
        <mxCell id="4G9FyO-R4yy1cl6RzTbk-3" value="száraz" style="rounded=0;whiteSpace=wrap;html=1;" vertex="1" parent="1">
          <mxGeometry x="250" y="100" width="120" height="60" as="geometry" />
        </mxCell>
        <mxCell id="4G9FyO-R4yy1cl6RzTbk-4" value="" style="endArrow=none;html=1;rounded=0;exitX=1;exitY=0.5;exitDx=0;exitDy=0;entryX=0;entryY=0.5;entryDx=0;entryDy=0;" edge="1" parent="1" source="4G9FyO-R4yy1cl6RzTbk-1" target="4G9FyO-R4yy1cl6RzTbk-5">
          <mxGeometry width="50" height="50" relative="1" as="geometry">
            <mxPoint x="520" y="430" as="sourcePoint" />
            <mxPoint x="740" y="140" as="targetPoint" />
            <Array as="points">
              <mxPoint x="610" y="120" />
            </Array>
          </mxGeometry>
        </mxCell>
        <mxCell id="4G9FyO-R4yy1cl6RzTbk-5" value="édes" style="rounded=0;whiteSpace=wrap;html=1;" vertex="1" parent="1">
          <mxGeometry x="720" y="110" width="120" height="60" as="geometry" />
        </mxCell>
      </root>
    </mxGraphModel>
  </diagram>
</mxfile>
